<svg xmlns="http://www.w3.org/2000/svg" xmlns:xlink="http://www.w3.org/1999/xlink" width="75" zoomAndPan="magnify" viewBox="0 0 56.25 30.000001" height="40" preserveAspectRatio="xMidYMid meet" version="1.0"><defs><g/><clipPath id="ea3e6e435d"><path d="M 49 13 L 54.980469 13 L 54.980469 19 L 49 19 Z M 49 13 " clip-rule="nonzero"/></clipPath></defs><g fill="#ffffff" fill-opacity="1"><g transform="translate(0.98982, 18.145163)"><g><path d="M 6.695312 0 L 8.109375 -6.6875 L 6.410156 -6.6875 L 5.769531 -2.644531 L 4.765625 -6.6875 L 3.398438 -6.6875 L 2.453125 -2.695312 L 1.765625 -6.6875 L 0.046875 -6.6875 L 1.460938 0 L 3.007812 0 L 4.039062 -4.183594 L 5.175781 0 Z M 6.695312 0 "/></g></g></g><g fill="#ffffff" fill-opacity="1"><g transform="translate(9.144521, 18.145163)"><g><path d="M 2.742188 -5.035156 C 2.339844 -5.035156 1.957031 -4.957031 1.59375 -4.792969 C 0.851562 -4.46875 0.296875 -3.601562 0.296875 -2.492188 C 0.296875 -1.738281 0.535156 -1.097656 0.957031 -0.640625 C 1.375 -0.179688 1.96875 0.09375 2.742188 0.09375 C 3.515625 0.09375 4.136719 -0.179688 4.554688 -0.640625 C 4.976562 -1.097656 5.195312 -1.738281 5.195312 -2.492188 C 5.195312 -2.847656 5.121094 -3.21875 4.96875 -3.628906 C 4.671875 -4.421875 3.90625 -5.035156 2.742188 -5.035156 Z M 2.742188 -3.746094 C 3.277344 -3.746094 3.542969 -3.257812 3.542969 -2.492188 C 3.542969 -1.691406 3.304688 -1.183594 2.742188 -1.183594 C 2.214844 -1.183594 1.949219 -1.691406 1.949219 -2.492188 C 1.949219 -3.257812 2.226562 -3.746094 2.742188 -3.746094 Z M 2.742188 -3.746094 "/></g></g></g><g fill="#ffffff" fill-opacity="1"><g transform="translate(14.654198, 18.145163)"><g><path d="M 2.015625 -4.929688 L 0.535156 -4.929688 L 0.535156 0 L 2.207031 0 L 2.207031 -3.085938 C 2.40625 -3.3125 2.761719 -3.601562 3.160156 -3.601562 C 3.324219 -3.601562 3.503906 -3.574219 3.695312 -3.523438 L 3.898438 -4.890625 C 3.746094 -4.96875 3.503906 -4.996094 3.277344 -4.996094 C 2.710938 -4.996094 2.339844 -4.699219 2.109375 -4.421875 Z M 2.015625 -4.929688 "/></g></g></g><g fill="#ffffff" fill-opacity="1"><g transform="translate(18.550125, 18.145163)"><g><path d="M 2.167969 -6.675781 L 0.496094 -6.675781 L 0.496094 -1.328125 C 0.496094 -0.335938 0.972656 0.09375 1.890625 0.09375 C 2.378906 0.09375 2.867188 -0.0195312 3.054688 -0.09375 L 2.847656 -1.289062 C 2.695312 -1.242188 2.578125 -1.214844 2.492188 -1.214844 C 2.246094 -1.214844 2.167969 -1.328125 2.167969 -1.605469 Z M 2.167969 -6.675781 "/></g></g></g><g fill="#ffffff" fill-opacity="1"><g transform="translate(21.701241, 18.145163)"><g><path d="M 5.035156 0 L 5.035156 -6.6875 L 3.363281 -6.6875 L 3.363281 -4.882812 C 3.132812 -4.996094 2.796875 -5.035156 2.492188 -5.035156 C 2.148438 -5.035156 1.816406 -4.957031 1.480469 -4.785156 C 0.8125 -4.449219 0.324219 -3.542969 0.324219 -2.472656 C 0.324219 -1.738281 0.515625 -1.097656 0.878906 -0.640625 C 1.230469 -0.179688 1.730469 0.09375 2.359375 0.09375 C 2.988281 0.09375 3.304688 -0.144531 3.503906 -0.382812 L 3.582031 0 Z M 3.363281 -1.441406 C 3.257812 -1.289062 3.039062 -1.175781 2.78125 -1.175781 C 2.273438 -1.175781 1.957031 -1.679688 1.957031 -2.484375 C 1.929688 -2.65625 1.988281 -2.96875 2.121094 -3.257812 C 2.265625 -3.523438 2.492188 -3.746094 2.867188 -3.746094 C 3.007812 -3.746094 3.179688 -3.707031 3.363281 -3.621094 Z M 3.363281 -1.441406 "/></g></g></g><g fill="#ffffff" fill-opacity="1"><g transform="translate(27.249115, 18.145163)"><g/></g></g><g fill="#ffffff" fill-opacity="1"><g transform="translate(29.407153, 18.145163)"><g><path d="M 0.199219 -0.554688 C 0.765625 -0.179688 1.519531 0.144531 2.695312 0.144531 C 3 0.144531 3.363281 0.078125 3.761719 -0.0273438 C 4.566406 -0.257812 5.195312 -0.917969 5.195312 -1.917969 C 5.1875 -2.320312 5.101562 -2.761719 4.824219 -3.160156 C 4.546875 -3.554688 4.050781 -3.898438 3.199219 -4.125 C 2.933594 -4.210938 2.722656 -4.289062 2.550781 -4.355469 C 2.214844 -4.488281 1.949219 -4.613281 1.949219 -4.929688 C 1.949219 -5.214844 2.214844 -5.414062 2.769531 -5.414062 C 3.332031 -5.414062 3.839844 -5.148438 4.242188 -4.699219 L 5.148438 -5.835938 C 4.949219 -6.046875 4.660156 -6.292969 4.269531 -6.484375 C 3.878906 -6.675781 3.371094 -6.808594 2.722656 -6.808594 C 2.417969 -6.808594 2.035156 -6.761719 1.644531 -6.636719 C 1.25 -6.503906 0.886719 -6.292969 0.621094 -5.929688 C 0.382812 -5.617188 0.257812 -5.234375 0.257812 -4.785156 C 0.257812 -4.15625 0.449219 -3.726562 0.8125 -3.398438 C 1.164062 -3.074219 1.660156 -2.867188 2.273438 -2.675781 C 2.894531 -2.464844 3.277344 -2.292969 3.398438 -2.160156 C 3.488281 -2.09375 3.523438 -1.96875 3.523438 -1.816406 C 3.523438 -1.488281 3.246094 -1.300781 2.675781 -1.300781 C 2.511719 -1.300781 2.332031 -1.316406 2.121094 -1.375 C 1.710938 -1.460938 1.042969 -1.804688 0.886719 -1.949219 Z M 0.199219 -0.554688 "/></g></g></g><g fill="#ffffff" fill-opacity="1"><g transform="translate(34.85954, 18.145163)"><g><path d="M 2.003906 -4.929688 L 0.535156 -4.929688 L 0.535156 0 L 2.207031 0 L 2.207031 -3.417969 C 2.359375 -3.574219 2.589844 -3.734375 2.867188 -3.734375 C 3.277344 -3.734375 3.410156 -3.417969 3.410156 -2.980469 L 3.410156 0 L 5.070312 0 L 5.070312 -3.171875 C 5.070312 -3.304688 5.0625 -3.390625 5.054688 -3.46875 C 5.167969 -3.535156 5.226562 -3.574219 5.234375 -3.582031 C 5.367188 -3.667969 5.539062 -3.734375 5.703125 -3.734375 C 6.160156 -3.734375 6.292969 -3.457031 6.292969 -2.980469 L 6.292969 0 L 7.964844 0 L 7.964844 -3.132812 C 7.964844 -4.347656 7.429688 -5.035156 6.179688 -5.035156 C 5.578125 -5.035156 5.089844 -4.832031 4.660156 -4.507812 C 4.355469 -4.863281 3.898438 -5.035156 3.332031 -5.035156 C 2.796875 -5.035156 2.339844 -4.785156 2.074219 -4.519531 Z M 2.003906 -4.929688 "/></g></g></g><g fill="#ffffff" fill-opacity="1"><g transform="translate(43.338903, 18.145163)"><g><path d="M 1.402344 -6.886719 C 0.839844 -6.886719 0.535156 -6.535156 0.535156 -6.09375 C 0.535156 -5.625 0.839844 -5.328125 1.402344 -5.328125 C 1.957031 -5.328125 2.273438 -5.625 2.273438 -6.09375 C 2.273438 -6.535156 1.957031 -6.886719 1.402344 -6.886719 Z M 2.226562 0 L 2.226562 -4.929688 L 0.5625 -4.929688 L 0.5625 0 Z M 2.226562 0 "/></g></g></g><g fill="#ffffff" fill-opacity="1"><g transform="translate(46.12716, 18.145163)"><g><path d="M 2.167969 -6.675781 L 0.496094 -6.675781 L 0.496094 -1.328125 C 0.496094 -0.335938 0.972656 0.09375 1.890625 0.09375 C 2.378906 0.09375 2.867188 -0.0195312 3.054688 -0.09375 L 2.847656 -1.289062 C 2.695312 -1.242188 2.578125 -1.214844 2.492188 -1.214844 C 2.246094 -1.214844 2.167969 -1.328125 2.167969 -1.605469 Z M 2.167969 -6.675781 "/></g></g></g><g clip-path="url(#ea3e6e435d)"><g fill="#ffffff" fill-opacity="1"><g transform="translate(49.278276, 18.145163)"><g><path d="M 4.261719 -1.730469 C 3.90625 -1.421875 3.574219 -1.195312 3.007812 -1.195312 C 2.332031 -1.195312 1.988281 -1.519531 1.949219 -2.121094 L 4.96875 -2.121094 C 4.957031 -4.089844 4.089844 -5.035156 2.695312 -5.035156 C 2.339844 -5.035156 1.988281 -4.96875 1.632812 -4.8125 C 0.871094 -4.527344 0.324219 -3.628906 0.324219 -2.464844 C 0.324219 -1.59375 0.582031 -0.964844 1.023438 -0.535156 C 1.460938 -0.09375 2.0625 0.09375 2.769531 0.09375 C 3.046875 0.132812 3.429688 0.0664062 3.8125 -0.046875 C 4.191406 -0.164062 4.554688 -0.324219 4.757812 -0.554688 Z M 1.957031 -3.054688 C 2.003906 -3.582031 2.292969 -3.917969 2.703125 -3.917969 C 3.09375 -3.917969 3.371094 -3.5625 3.398438 -3.054688 Z M 1.957031 -3.054688 "/></g></g></g></g></svg>