<svg xmlns="http://www.w3.org/2000/svg" xmlns:xlink="http://www.w3.org/1999/xlink" width="550" zoomAndPan="magnify" viewBox="0 0 412.5 187.499995" height="250" preserveAspectRatio="xMidYMid meet" version="1.0"><defs><g/></defs><g fill="#E91E63" fill-opacity="1"><g transform="translate(3.338939, 145.305501)"><g><path d="M 57.53125 -50.203125 L 86.15625 -96.8125 L 58.5 -96.8125 L 43.984375 -71.078125 L 29.3125 -96.8125 L 1.25 -96.8125 L 30.015625 -49.921875 L -0.828125 0 L 27.109375 0 L 43.5625 -28.765625 L 59.875 0 L 88.234375 0 Z M 57.53125 -50.203125 "/></g></g></g><g fill="#E91E63" fill-opacity="1"><g transform="translate(90.754899, 145.305501)"><g/></g></g><g fill="#E91E63" fill-opacity="1"><g transform="translate(73.697971, 114.006497)"><g><path d="M 4.40625 -44.75 L 4.40625 0 L 15.65625 0 L 15.65625 -14.703125 L 21.15625 -14.703125 C 24.609375 -14.703125 27.671875 -15.21875 30.359375 -16.484375 C 35.40625 -18.796875 37.96875 -23.96875 37.96875 -29.921875 C 37.96875 -35.28125 35.984375 -39.5625 31.96875 -42 C 28.953125 -43.78125 25.1875 -44.75 20.703125 -44.75 Z M 15.65625 -34.84375 L 20.515625 -34.84375 C 22.046875 -34.84375 23.328125 -34.578125 24.296875 -34 C 25.890625 -33.234375 26.59375 -31.578125 26.59375 -29.65625 C 26.59375 -28 26.078125 -26.46875 24.546875 -25.4375 C 23.515625 -24.796875 22.109375 -24.484375 20.390625 -24.484375 L 15.65625 -24.484375 Z M 15.65625 -34.84375 "/></g></g></g><g fill="#E91E63" fill-opacity="1"><g transform="translate(113.005024, 114.006497)"><g><path d="M 14.765625 -44.75 L 3.578125 -44.75 L 3.578125 0 L 14.765625 0 L 14.765625 -22.890625 C 15.859375 -23.90625 17.703125 -25 19.625 -25 C 21.984375 -25 23.515625 -23.328125 23.515625 -19.5625 L 23.515625 0 L 34.703125 0 L 34.703125 -20.90625 C 34.703125 -29.015625 30.8125 -33.6875 22.953125 -33.6875 C 19.234375 -33.6875 16.625 -32.46875 14.765625 -31.125 Z M 14.765625 -44.75 "/></g></g></g><g fill="#E91E63" fill-opacity="1"><g transform="translate(151.097707, 114.006497)"><g><path d="M 7.796875 -23.078125 C 10.15625 -24.484375 12.78125 -25.375 15.40625 -25.375 C 18.15625 -25.375 19.5 -24.15625 19.5 -21.734375 L 19.5 -20.578125 C 15.984375 -20.390625 13.75 -20.078125 12.46875 -19.875 C 10.296875 -19.6875 7.546875 -18.921875 5.4375 -17.125 C 3.203125 -15.40625 1.59375 -12.84375 1.65625 -9.390625 C 1.65625 -6.203125 2.75 -3.90625 4.53125 -2.171875 C 6.390625 -0.390625 8.828125 0.515625 11.703125 0.515625 C 15.53125 0.515625 18.40625 -0.890625 20.203125 -2.5625 L 21.09375 0 L 30.484375 0 L 30.484375 -20.84375 C 30.484375 -29.59375 25.25 -33.6875 17.125 -33.6875 C 15.21875 -33.6875 12.40625 -33.375 8.625 -32.03125 C 6.84375 -31.453125 5.5625 -30.75 4.53125 -30.171875 Z M 19.5 -8.6875 C 18.46875 -7.921875 17.0625 -7.28125 15.53125 -7.28125 C 13.359375 -7.28125 12.078125 -8.5625 12.078125 -10.234375 C 12.078125 -12.34375 12.96875 -13.75 15.59375 -14.25 C 15.78125 -14.3125 16.234375 -14.375 16.8125 -14.453125 C 17.390625 -14.515625 18.34375 -14.578125 19.5 -14.765625 Z M 19.5 -8.6875 "/></g></g></g><g fill="#E91E63" fill-opacity="1"><g transform="translate(184.972074, 114.006497)"><g><path d="M 13.484375 -32.984375 L 3.578125 -32.984375 L 3.578125 0 L 14.765625 0 L 14.765625 -20.640625 C 16.109375 -22.1875 18.46875 -24.09375 21.15625 -24.09375 C 22.25 -24.09375 23.453125 -23.90625 24.734375 -23.59375 L 26.078125 -32.734375 C 25.0625 -33.234375 23.453125 -33.4375 21.921875 -33.4375 C 18.15625 -33.4375 15.65625 -31.453125 14.125 -29.59375 Z M 13.484375 -32.984375 "/></g></g></g><g fill="#E91E63" fill-opacity="1"><g transform="translate(211.048941, 114.006497)"><g><path d="M 13.421875 -32.984375 L 3.578125 -32.984375 L 3.578125 0 L 14.765625 0 L 14.765625 -22.890625 C 15.78125 -23.90625 17.328125 -25 19.171875 -25 C 21.921875 -25 22.8125 -22.890625 22.8125 -19.9375 L 22.8125 0 L 33.9375 0 L 33.9375 -21.21875 C 33.9375 -22.109375 33.875 -22.6875 33.8125 -23.203125 C 34.578125 -23.65625 34.96875 -23.90625 35.03125 -23.96875 C 35.921875 -24.546875 37.078125 -25 38.15625 -25 C 41.234375 -25 42.125 -23.140625 42.125 -19.9375 L 42.125 0 L 53.3125 0 L 53.3125 -20.96875 C 53.3125 -29.078125 49.734375 -33.6875 41.359375 -33.6875 C 37.328125 -33.6875 34.078125 -32.34375 31.1875 -30.171875 C 29.140625 -32.53125 26.078125 -33.6875 22.3125 -33.6875 C 18.734375 -33.6875 15.65625 -32.03125 13.875 -30.234375 Z M 13.421875 -32.984375 "/></g></g></g><g fill="#E91E63" fill-opacity="1"><g transform="translate(267.804497, 114.006497)"><g><path d="M 7.796875 -23.078125 C 10.15625 -24.484375 12.78125 -25.375 15.40625 -25.375 C 18.15625 -25.375 19.5 -24.15625 19.5 -21.734375 L 19.5 -20.578125 C 15.984375 -20.390625 13.75 -20.078125 12.46875 -19.875 C 10.296875 -19.6875 7.546875 -18.921875 5.4375 -17.125 C 3.203125 -15.40625 1.59375 -12.84375 1.65625 -9.390625 C 1.65625 -6.203125 2.75 -3.90625 4.53125 -2.171875 C 6.390625 -0.390625 8.828125 0.515625 11.703125 0.515625 C 15.53125 0.515625 18.40625 -0.890625 20.203125 -2.5625 L 21.09375 0 L 30.484375 0 L 30.484375 -20.84375 C 30.484375 -29.59375 25.25 -33.6875 17.125 -33.6875 C 15.21875 -33.6875 12.40625 -33.375 8.625 -32.03125 C 6.84375 -31.453125 5.5625 -30.75 4.53125 -30.171875 Z M 19.5 -8.6875 C 18.46875 -7.921875 17.0625 -7.28125 15.53125 -7.28125 C 13.359375 -7.28125 12.078125 -8.5625 12.078125 -10.234375 C 12.078125 -12.34375 12.96875 -13.75 15.59375 -14.25 C 15.78125 -14.3125 16.234375 -14.375 16.8125 -14.453125 C 17.390625 -14.515625 18.34375 -14.578125 19.5 -14.765625 Z M 19.5 -8.6875 "/></g></g></g><g fill="#E91E63" fill-opacity="1"><g transform="translate(301.678863, 114.006497)"><g><path d="M 27.421875 -11.5625 C 25.3125 -9.65625 23.328125 -8.25 19.875 -8.25 C 15.59375 -8.25 13.171875 -10.9375 13.171875 -16.8125 C 13.171875 -22.25 15.28125 -24.921875 18.671875 -24.921875 C 21.09375 -24.921875 22.6875 -23.140625 24.09375 -20.140625 L 31.828125 -25.125 L 30.546875 -27.359375 C 29.34375 -29.28125 27.296875 -31.265625 24.09375 -32.671875 C 20.90625 -34.078125 16.421875 -34.265625 11 -32.15625 C 5.8125 -30.109375 2.171875 -24.359375 2.171875 -16.359375 C 2.171875 -5.3125 8.375 0.640625 18.53125 0.640625 C 24.546875 0.640625 28.828125 -1.46875 30.9375 -3.265625 Z M 27.421875 -11.5625 "/></g></g></g><g fill="#E91E63" fill-opacity="1"><g transform="translate(334.850192, 114.006497)"><g><path d="M 9.390625 -46.09375 C 5.625 -46.09375 3.578125 -43.71875 3.578125 -40.78125 C 3.578125 -37.65625 5.625 -35.671875 9.390625 -35.671875 C 13.109375 -35.671875 15.21875 -37.65625 15.21875 -40.78125 C 15.21875 -43.71875 13.109375 -46.09375 9.390625 -46.09375 Z M 14.890625 0 L 14.890625 -32.984375 L 3.765625 -32.984375 L 3.765625 0 Z M 14.890625 0 "/></g></g></g><g fill="#E91E63" fill-opacity="1"><g transform="translate(353.513064, 114.006497)"><g><path d="M 1.46875 -3.265625 C 2.359375 -2.5625 4.15625 -1.53125 6.640625 -0.765625 C 9.015625 0.0625 12.203125 0.640625 15.65625 0.640625 C 17.890625 0.640625 20 0.390625 22.109375 -0.125 C 26.328125 -1.21875 30.171875 -4.40625 30.171875 -10.09375 C 30.171875 -11.25 30.046875 -12.59375 29.46875 -13.9375 C 28.890625 -15.21875 27.9375 -16.5625 26.140625 -17.703125 C 24.21875 -18.984375 21.734375 -19.9375 18.46875 -20.84375 C 16.625 -21.21875 15.21875 -21.734375 14.1875 -22.1875 C 13.171875 -22.625 12.65625 -23.328125 12.65625 -24.15625 C 12.65625 -25.890625 14.578125 -26.140625 16.6875 -26.140625 C 18.03125 -26.140625 19.625 -25.703125 21.28125 -25.125 C 22.953125 -24.546875 24.671875 -23.65625 26.015625 -22.75 L 29.34375 -29.84375 C 26.40625 -31.828125 22.625 -33.6875 16.234375 -33.6875 C 13.171875 -33.75 9.53125 -33.046875 6.78125 -31.328125 C 4.03125 -29.65625 1.921875 -26.90625 2.171875 -23.203125 C 2.171875 -20 3.0625 -17.828125 5.109375 -16.234375 C 7.09375 -14.515625 10.09375 -13.359375 14.375 -12.265625 C 17.828125 -11.375 19.5 -10.359375 19.5 -9.265625 C 19.5 -7.546875 17.765625 -7.15625 15.65625 -7.15625 C 13.75 -7.15625 11.703125 -7.484375 9.78125 -8.25 C 7.734375 -8.953125 6.140625 -9.90625 4.921875 -10.9375 Z M 1.46875 -3.265625 "/></g></g></g><g fill="#E91E63" fill-opacity="1"><g transform="translate(385.533926, 114.006497)"><g><path d="M 16.109375 -32.984375 L 16.109375 -40.96875 L 4.984375 -40.96875 L 4.984375 -32.984375 L 0.515625 -32.984375 L 0.515625 -24.734375 L 4.984375 -24.734375 L 4.984375 -9.140625 C 4.984375 -2.9375 8.25 0.640625 14.703125 0.640625 C 19.5 0.640625 22.5625 -0.390625 25.1875 -2.234375 L 22.625 -9.53125 C 21.21875 -8.4375 19.875 -7.921875 18.671875 -7.921875 C 16.875 -7.921875 16.109375 -8.625 16.109375 -10.734375 L 16.109375 -24.734375 L 23.328125 -24.734375 L 23.328125 -32.984375 Z M 16.109375 -32.984375 "/></g></g></g></svg>